<?xml version="1.0" encoding="UTF-8"?>
<svg xmlns="http://www.w3.org/2000/svg" width="1080px" height="1080px"
     viewBox="0 0 1080 1080" version="1.1">
    <defs>
        <clipPath id="clip1">
            <path d="M 106.9375 224.285156 L 970.261719 224.285156 L 970.261719 855.507812 L 106.9375 855.507812 Z M 106.9375 224.285156 "/>
        </clipPath>
    </defs>
    <g id="surface1">
        <g clip-path="url(#clip1)" clip-rule="nonzero">
            <path style=" stroke:none;fill-rule:nonzero;fill:rgb(0%,0%,0%);fill-opacity:1;"
                  d="M 538.992188 224.285156 C 632.039062 224.285156 708.882812 235.785156 769.523438 258.789062 C 830.164062 281.789062 876.6875 312.996094 909.097656 352.414062 C 941.507812 391.933594 961.894531 436.523438 970.261719 486.183594 L 631.515625 566.164062 C 637.269531 546.300781 637.527344 529.050781 632.300781 514.414062 C 627.074219 499.777344 616.617188 488.277344 600.9375 479.910156 C 585.253906 471.546875 564.34375 467.367188 538.207031 467.367188 C 513.636719 467.367188 494.191406 470.761719 479.867188 477.558594 C 465.4375 484.355469 455.246094 492.824219 449.285156 502.964844 C 443.222656 513.210938 440.191406 524.085938 440.191406 535.585938 C 440.191406 543.949219 442.019531 551.894531 445.679688 559.421875 C 449.339844 567.054688 455.089844 574.007812 462.929688 580.28125 C 470.769531 586.554688 480.964844 591.519531 493.511719 595.179688 C 506.058594 598.835938 520.957031 600.667969 538.207031 600.667969 C 564.867188 600.667969 585.515625 597.636719 600.152344 591.570312 C 614.789062 585.613281 625.246094 577.144531 631.515625 566.164062 C 623.152344 597.007812 614.789062 628.113281 606.425781 659.476562 C 598.0625 690.839844 589.59375 722.3125 581.019531 753.886719 C 572.34375 785.5625 563.820312 816.824219 555.457031 847.667969 C 541.34375 850.28125 527.648438 852.265625 514.367188 853.625 C 500.984375 854.882812 485.148438 855.507812 466.851562 855.507812 C 427.121094 855.507812 390.6875 851.847656 357.542969 844.53125 C 324.296875 837.210938 294.34375 826.863281 267.683594 813.480469 C 241.023438 800.203125 217.65625 784.152344 197.582031 765.332031 C 177.402344 746.515625 160.675781 725.449219 147.398438 702.132812 C 134.015625 678.921875 123.925781 653.832031 117.128906 626.855469 C 110.332031 599.988281 106.9375 571.914062 106.9375 542.640625 C 106.9375 518.59375 109.445312 495.175781 114.464844 472.382812 C 119.378906 449.695312 127.21875 427.742188 137.988281 406.515625 C 148.652344 385.398438 162.347656 365.535156 179.074219 346.921875 C 195.804688 328.417969 215.5625 311.691406 238.355469 296.738281 C 261.042969 281.894531 287.285156 268.980469 317.082031 258.003906 C 346.878906 247.027344 380.230469 238.660156 417.136719 232.910156 C 453.9375 227.160156 494.554688 224.285156 538.992188 224.285156 Z M 963.988281 835.90625 L 631.515625 835.90625 C 631.515625 805.585938 631.515625 775.527344 631.515625 745.730469 C 631.515625 715.933594 631.515625 685.980469 631.515625 655.871094 C 631.515625 625.863281 631.515625 595.960938 631.515625 566.164062 C 668.632812 566.164062 705.644531 566.164062 742.550781 566.164062 C 779.351562 566.164062 816.308594 566.164062 853.425781 566.164062 C 890.539062 566.164062 927.394531 566.164062 963.988281 566.164062 Z M 963.988281 835.90625 "/>
        </g>
    </g>
</svg>
